<svg width="60" height="60" viewBox="0 0 60 60" fill="none" xmlns="http://www.w3.org/2000/svg">
<path fill-rule="evenodd" clip-rule="evenodd" d="M11.1259 30.346C14.2309 30.346 16.7486 32.8655 16.7486 35.9712V52.4912C16.7486 55.5969 14.2309 58.1164 11.1259 58.1164H9.25164C6.14663 58.1164 3.62891 55.5969 3.62891 52.4912V35.9712C3.62891 32.8655 6.14663 30.346 9.25164 30.346H11.1259ZM37.9261 37.3546L47.591 32.8799C49.4481 32.0201 51.616 32.1666 53.3403 33.269C55.0646 34.3715 56.1079 36.2762 56.1079 38.3226V39.2929C56.1079 40.8398 55.2786 42.2689 53.9353 43.0375L37.1405 52.6378C35.1569 53.769 32.9141 54.3647 30.6306 54.3647H20.3097C20.4331 53.7594 20.4972 53.1325 20.4972 52.4912V35.9712C20.4972 35.205 20.405 34.458 20.2316 33.7446H31.7458C32.85 33.7446 33.8793 34.0617 34.7477 34.6117L33.4904 39.6412C33.2561 40.5828 32.4096 41.2433 31.4397 41.2433H26.1199C25.0859 41.2433 24.2457 42.0839 24.2457 43.1167C24.2457 44.1519 25.0859 44.9926 26.1199 44.9926H31.4397C34.1292 44.9926 36.4751 43.16 37.128 40.5491L37.9261 37.3546ZM28.9235 26.9281C28.9235 26.9281 24.6455 24.4325 21.2234 20.8297C18.7229 18.1973 16.7486 14.974 16.7486 11.717C16.7486 7.31919 20.3175 3.75 24.7142 3.75C26.6791 3.75 28.4783 4.46336 29.8684 5.64508C31.2585 4.46336 33.0577 3.75 35.0226 3.75C39.4193 3.75 42.9882 7.31919 42.9882 11.717C42.9882 14.974 41.0139 18.1973 38.5134 20.8297C35.0913 24.4325 30.8133 26.9281 30.8133 26.9281C30.2292 27.2692 29.5076 27.2692 28.9235 26.9281Z" fill="#C9CAD0"/>
</svg>
