<svg width="60" height="60" viewBox="0 0 60 60" fill="none" xmlns="http://www.w3.org/2000/svg">
<g clip-path="url(#clip0_124_384)">
<path d="M6.64113 35.5848C6.30914 34.6725 5.30039 34.2022 4.38809 34.5342L1.27383 35.6678C0.579375 35.9205 0.117188 36.5805 0.117188 37.3195V58.2423C0.117188 59.2131 0.904219 60.0001 1.875 60.0001H9.49031C9.69539 60.0001 9.89883 59.9642 10.0915 59.8941L13.2059 58.7605C14.1182 58.4285 14.5884 57.4198 14.2564 56.5075L6.64113 35.5848Z" fill="#A6D6C9"/>
<path d="M59.6132 41.2768C58.7197 38.822 55.9147 37.66 53.5469 38.7639L45.2538 42.6302C45.2441 43.0206 45.2056 43.4149 45.1358 43.8108C44.3784 48.1061 40.2678 50.9844 35.9725 50.227L24.136 48.1399C23.18 47.9714 22.5416 47.0596 22.7102 46.1036C22.8788 45.1475 23.7904 44.5091 24.7466 44.6777L36.5831 46.7649C38.9731 47.1863 41.2523 45.5904 41.6737 43.2004C42.0951 40.8103 40.4993 38.5311 38.1092 38.1099L32.4593 37.1136C30.7685 36.8155 29.192 36.1743 27.7733 35.2077C23.6498 32.3985 18.3887 31.74 13.6999 33.4466L10.083 34.7631L17.7664 55.8728L32.6578 57.9192C34.4804 58.1698 36.305 57.8507 37.9344 56.9967L57.496 46.7446C59.4711 45.7092 60.376 43.3725 59.6132 41.2768Z" fill="#A6D6C9"/>
<path d="M28.7317 9.375H40.6432L43.2682 2.37504C43.6991 1.22578 42.8495 0 41.6222 0H27.7526C26.5253 0 25.6757 1.22578 26.1067 2.37504L28.7317 9.375Z" fill="#A6D6C9"/>
<path d="M29.1555 31.9112C28.5524 31.1912 28.6195 30.1181 29.3215 29.4819C30.0409 28.83 31.1526 28.8846 31.8045 29.604C32.5612 30.439 33.7536 30.9374 34.9941 30.9374C36.163 30.9374 36.9837 30.2536 37.1017 29.5924C37.2576 28.7194 35.9191 28.1534 35.505 28.0007C33.5012 27.2616 31.7218 26.4695 31.6471 26.4361C31.5624 26.3984 31.4809 26.3539 31.4032 26.3033C29.9957 25.3857 29.2705 23.7766 29.5107 22.104C29.766 20.3251 31.0645 18.8767 32.8991 18.324C36.415 17.2646 39.319 19.5707 39.5637 19.7723C39.5645 19.773 39.5655 19.7737 39.5663 19.7746C39.5705 19.778 39.5757 19.7823 39.5779 19.7842L39.5774 19.7848C39.9606 20.1071 40.2046 20.5898 40.2046 21.1298C40.2046 22.1006 39.4176 22.8877 38.4468 22.8877C38.016 22.8877 37.6219 22.7321 37.3162 22.4749L37.3157 22.4755L37.3267 22.4846C37.3104 22.4714 35.6688 21.1617 33.913 21.6904C33.1664 21.9152 33.0191 22.404 32.9904 22.6037C32.971 22.7392 32.9609 23.0605 33.2389 23.2959C33.7109 23.5023 35.1633 24.1277 36.7214 24.7024C40.0587 25.9334 40.8937 28.3548 40.5623 30.2105C40.2077 32.1968 38.6104 33.7425 36.5397 34.263L38.7195 34.6474C40.8002 35.0142 42.6135 36.1695 43.8253 37.9002C44.0925 38.2819 44.3234 38.6812 44.5172 39.0946L51.9723 35.6189V30.973C51.9723 26.8698 50.8321 22.8561 48.6749 19.3658C47.0904 16.8021 45.0066 14.6048 42.5583 12.8906H26.8163C24.368 14.6048 22.2842 16.8021 20.6997 19.3658C18.8795 22.3109 17.7835 25.6284 17.4854 29.058C17.9902 29.0179 18.4977 28.9968 19.0075 28.9968C22.6239 28.9968 26.1171 30.0022 29.1555 31.9112Z" fill="#A6D6C9"/>
</g>
<defs>
<clipPath id="clip0_124_384">
<rect width="60" height="60" fill="white"/>
</clipPath>
</defs>
</svg>
