<svg width="60" height="60" viewBox="0 0 60 60" fill="none" xmlns="http://www.w3.org/2000/svg">
<path d="M48.9092 8.27803L38.0904 5.54053C37.572 6.58542 34.4796 12.6934 33.8811 13.8844L36.8811 32.6437C36.9794 33.264 36.9202 33.8991 36.7088 34.4905C36.4975 35.0819 36.1408 35.6106 35.6717 36.0281L31.6873 39.5812C31.1558 40.0531 30.4661 40.3074 29.7554 40.2935C29.0448 40.2796 28.3655 39.9985 27.8529 39.5062L24.1123 35.8687C23.6822 35.45 23.3583 34.9347 23.1675 34.3656C22.9768 33.7965 22.9246 33.1901 23.0154 32.5968L25.9404 13.8843C25.3049 12.7156 22.055 6.71866 21.4779 5.65303L11.0904 8.27803C9.93557 8.56844 8.9108 9.23627 8.17877 10.1755C7.44674 11.1148 7.04939 12.2716 7.04981 13.4624V27.1218C7.1886 38.3789 14.0199 49.6936 26.887 55.6032C27.8693 56.0298 28.9288 56.2499 29.9997 56.2499C31.0706 56.2499 32.1301 56.0297 33.1123 55.603C45.9804 49.6967 52.8147 38.3776 52.95 27.122L52.9498 13.4624C52.9502 12.2716 52.5529 11.1148 51.8208 10.1755C51.0888 9.23627 50.064 8.56844 48.9092 8.27803Z" fill="#A6D6C9"/>
<path d="M27.4779 12.7874H32.3342C32.9714 11.5253 35.6464 6.22674 36.2248 5.07182C33.8934 4.55728 30.4109 3.2004 28.0311 3.99382L23.3623 5.17495C23.9619 6.29343 26.8152 11.564 27.4779 12.7874Z" fill="#A6D6C9"/>
<path d="M24.8715 32.8874C24.826 33.1829 24.8516 33.485 24.9462 33.7687C25.0407 34.0524 25.2015 34.3095 25.4153 34.5186L29.1653 38.1561C29.3341 38.3225 29.5602 38.4181 29.7972 38.4233C30.0342 38.4286 30.2643 38.343 30.4403 38.1842L34.4246 34.6311C34.6602 34.4222 34.8389 34.157 34.9438 33.8602C35.0488 33.5633 35.0766 33.2447 35.0246 32.9342L32.1184 14.6624H27.7215L24.8715 32.8874Z" fill="#A6D6C9"/>
</svg>
