<svg width="60" height="60" viewBox="0 0 60 60" fill="none" xmlns="http://www.w3.org/2000/svg">
<path d="M48.9094 8.27803L38.0907 5.54053C37.5722 6.58542 34.4798 12.6934 33.8813 13.8844L36.8813 32.6437C36.9796 33.264 36.9204 33.8991 36.7091 34.4905C36.4977 35.0819 36.1411 35.6106 35.6719 36.0281L31.6875 39.5812C31.1561 40.0531 30.4663 40.3074 29.7557 40.2935C29.0451 40.2796 28.3658 39.9985 27.8532 39.5062L24.1125 35.8687C23.6825 35.45 23.3586 34.9347 23.1678 34.3656C22.977 33.7965 22.9248 33.1901 23.0157 32.5968L25.9407 13.8843C25.3052 12.7156 22.0552 6.71866 21.4782 5.65303L11.0907 8.27803C9.93582 8.56844 8.91104 9.23627 8.17901 10.1755C7.44698 11.1148 7.04964 12.2716 7.05005 13.4624V27.1218C7.18885 38.3789 14.0201 49.6936 26.8872 55.6032C27.8695 56.0298 28.929 56.2499 29.9999 56.2499C31.0708 56.2499 32.1303 56.0297 33.1125 55.603C45.9807 49.6967 52.8149 38.3776 52.9503 27.122L52.95 13.4624C52.9505 12.2716 52.5531 11.1148 51.8211 10.1755C51.0891 9.23627 50.0643 8.56844 48.9094 8.27803Z" fill="#C9CAD0"/>
<path d="M27.4782 12.7874H32.3344C32.9716 11.5253 35.6467 6.22674 36.225 5.07182C33.8936 4.55728 30.4112 3.2004 28.0313 3.99382L23.3625 5.17495C23.9622 6.29343 26.8155 11.564 27.4782 12.7874Z" fill="#C9CAD0"/>
<path d="M24.872 32.8874C24.8265 33.1829 24.8521 33.485 24.9467 33.7687C25.0412 34.0524 25.202 34.3095 25.4158 34.5186L29.1658 38.1561C29.3346 38.3225 29.5607 38.4181 29.7977 38.4233C30.0347 38.4286 30.2647 38.343 30.4408 38.1842L34.4251 34.6311C34.6607 34.4222 34.8393 34.157 34.9443 33.8602C35.0492 33.5633 35.0771 33.2447 35.0251 32.9342L32.1189 14.6624H27.722L24.872 32.8874Z" fill="#C9CAD0"/>
</svg>
