<svg width="60" height="60" viewBox="0 0 60 60" fill="none" xmlns="http://www.w3.org/2000/svg">
<path d="M54.5038 49.4257L54.5011 49.4695C54.3287 52.3277 52.3974 54.7697 49.6622 55.6171C43.6882 57.4679 37.0262 58.5001 30.0016 58.5001C22.9786 58.5001 16.3185 57.4668 10.344 55.6175C7.60796 54.7706 5.67661 52.3271 5.50636 49.4681L5.49941 49.3514C5.43187 48.3994 5.39136 47.4407 5.39136 46.4887C5.39136 44.3348 5.56691 42.1878 5.89098 40.034C6.20158 38.0894 7.5992 36.3813 9.4627 35.6858C11.4815 34.9094 13.5745 34.2072 15.4448 33.1201L19.9482 30.6355C20.9542 30.6355 21.8117 31.331 22.0413 32.2627L27.0287 43.2134C27.1949 43.5782 27.7366 43.4886 27.7765 43.0898L28.4082 36.7729C27.5575 36.4623 26.9363 35.6858 26.9363 34.7541V33.7413C26.9363 33.1944 27.0916 32.8096 27.4022 32.418C28.2529 32.6543 29.1846 32.8096 30.0421 32.8096C30.8928 32.8096 31.8246 32.6543 32.682 32.418C32.9926 32.8096 33.1479 33.2754 33.1479 33.7413V34.7541C33.1479 35.6858 32.5268 36.4623 31.6693 36.7729L32.301 43.0898C32.3409 43.4887 32.8826 43.5782 33.0488 43.2134L38.0362 32.2627C38.2725 31.331 39.1233 30.6355 40.136 30.6355L44.6394 33.1201C46.5029 34.2072 48.6027 34.9094 50.6215 35.6858C52.485 36.3813 53.8016 38.0894 54.1122 40.1083C54.5781 43.2141 54.7334 46.3199 54.5038 49.4257Z" fill="#C9CAD0"/>
<path d="M19.4144 17.484C19.7252 17.8187 19.9317 18.2368 20.008 18.6872C21.136 25.3478 25.9819 29.0649 30.0405 29.0649C34.1093 29.0649 38.9694 25.3291 40.0815 18.7018C40.1514 18.2854 40.3262 17.8888 40.6098 17.576C40.9794 17.1686 41.1481 16.1761 41.1481 15.0967C41.1481 13.8336 41.4366 12.0504 40.8596 11.5303C40.6432 11.3817 40.4268 11.3817 40.0662 11.456C39.1285 5.36354 36.0992 1.5 30.0405 1.5C23.9819 1.5 20.9525 5.36354 20.0149 11.456C19.6542 11.3074 19.3657 11.3817 19.2215 11.5303C18.6445 12.0504 18.933 13.7593 18.933 15.0967C18.8787 16.1038 19.0289 17.0688 19.4144 17.484Z" fill="#C9CAD0"/>
</svg>
