<svg width="60" height="60" viewBox="0 0 60 60" fill="none" xmlns="http://www.w3.org/2000/svg">
<path d="M54.504 49.4257L54.5014 49.4695C54.329 52.3277 52.3977 54.7697 49.6625 55.6171C43.6884 57.4679 37.0264 58.5001 30.0018 58.5001C22.9788 58.5001 16.3188 57.4668 10.3442 55.6175C7.6082 54.7706 5.67685 52.3271 5.5066 49.4681L5.49965 49.3514C5.43211 48.3994 5.3916 47.4407 5.3916 46.4887C5.3916 44.3348 5.56715 42.1878 5.89123 40.034C6.20182 38.0894 7.59945 36.3813 9.46294 35.6858C11.4817 34.9094 13.5748 34.2072 15.445 33.1201L19.9484 30.6355C20.9544 30.6355 21.8119 31.331 22.0415 32.2627L27.0289 43.2134C27.1951 43.5782 27.7368 43.4886 27.7767 43.0898L28.4084 36.7729C27.5577 36.4623 26.9366 35.6858 26.9366 34.7541V33.7413C26.9366 33.1944 27.0918 32.8096 27.4024 32.418C28.2531 32.6543 29.1849 32.8096 30.0424 32.8096C30.8931 32.8096 31.8248 32.6543 32.6823 32.418C32.9929 32.8096 33.1482 33.2754 33.1482 33.7413V34.7541C33.1482 35.6858 32.527 36.4623 31.6695 36.7729L32.3012 43.0898C32.3411 43.4887 32.8828 43.5782 33.049 43.2134L38.0365 32.2627C38.2728 31.331 39.1235 30.6355 40.1363 30.6355L44.6397 33.1201C46.5032 34.2072 48.603 34.9094 50.6218 35.6858C52.4853 36.3813 53.8019 38.0894 54.1125 40.1083C54.5783 43.2141 54.7336 46.3199 54.504 49.4257Z" fill="#A6D6C9"/>
<path d="M19.4139 17.484C19.7247 17.8187 19.9313 18.2368 20.0075 18.6872C21.1355 25.3478 25.9814 29.0649 30.04 29.0649C34.1089 29.0649 38.9689 25.3291 40.081 18.7018C40.1509 18.2854 40.3257 17.8888 40.6093 17.576C40.9789 17.1686 41.1476 16.1761 41.1476 15.0967C41.1476 13.8336 41.4361 12.0504 40.8591 11.5303C40.6427 11.3817 40.4263 11.3817 40.0657 11.456C39.128 5.36354 36.0987 1.5 30.04 1.5C23.9814 1.5 20.952 5.36354 20.0144 11.456C19.6537 11.3074 19.3652 11.3817 19.221 11.5303C18.644 12.0504 18.9325 13.7593 18.9325 15.0967C18.8782 16.1038 19.0284 17.0688 19.4139 17.484Z" fill="#A6D6C9"/>
</svg>
