<svg width="75" height="75" viewBox="0 0 75 75" fill="none" xmlns="http://www.w3.org/2000/svg">
<path d="M68.2716 48.5998L56.0522 37.6764V25.6074L56.272 25.3876C56.7129 24.947 57.0626 24.4239 57.3012 23.8481C57.5398 23.2723 57.6626 22.6551 57.6626 22.0319C57.6626 21.4086 57.5398 20.7915 57.3012 20.2157C57.0626 19.6399 56.7129 19.1167 56.272 18.6762L56.0522 18.5142V10.4142C56.0522 8.57282 55.3207 6.80688 54.0187 5.50485C52.7166 4.20281 50.9507 3.47133 49.1093 3.47133H17.1607C17.0084 3.47045 16.8574 3.49964 16.7164 3.55723C16.5755 3.61481 16.4472 3.69966 16.3391 3.8069L3.80727 16.3387C3.70002 16.4469 3.61518 16.5751 3.55759 16.7161C3.50001 16.8571 3.47082 17.008 3.4717 17.1603V63.6427C3.4717 65.484 4.20318 67.25 5.50521 68.552C6.80725 69.854 8.57319 70.5855 10.4145 70.5855H49.1325C50.9738 70.5855 52.7398 69.854 54.0418 68.552C55.3439 67.25 56.0753 65.484 56.0753 63.6427V52.4184L59.998 56.804C65.6449 62.7169 74.1267 54.2235 68.2716 48.5998ZM47.7208 30.236L52.3493 25.6074L53.3792 26.6373C53.4748 26.7273 53.5842 26.8015 53.7032 26.8572V35.6399L47.7208 30.236ZM35.3394 39.3427L25.7004 29.7037L41.1019 14.2906L50.7525 23.9296L35.3394 39.3427ZM35.5592 42.8141L35.1542 43.2191C34.6883 43.6688 34.066 43.9201 33.4185 43.9201C32.771 43.9201 32.1487 43.6688 31.6828 43.2191L21.2685 32.8049C21.0347 32.5803 20.8487 32.3107 20.7216 32.0125C20.5946 31.7142 20.5291 31.3933 20.5291 31.0691C20.5291 30.7449 20.5946 30.4241 20.7216 30.1258C20.8487 29.8276 21.0347 29.558 21.2685 29.3334L21.6735 28.9284L35.5592 42.8141ZM54.0735 19.7292L54.6173 20.2614C54.8483 20.4877 55.0317 20.7578 55.1569 21.0558C55.2822 21.3538 55.3467 21.6739 55.3467 21.9972C55.3467 22.3204 55.2822 22.6405 55.1569 22.9385C55.0317 23.2366 54.8483 23.5066 54.6173 23.7329L54.2123 24.1379L53.2288 23.1427L40.3845 10.2985L40.7895 9.89347C41.0149 9.66112 41.2847 9.4764 41.5829 9.35025C41.881 9.22411 42.2015 9.15911 42.5252 9.15911C42.8489 9.15911 43.1694 9.22411 43.4675 9.35025C43.7657 9.4764 44.0355 9.66112 44.2609 9.89347L54.0735 19.7292ZM16.0035 7.41718V16.0032H7.41755L16.0035 7.41718ZM53.7379 63.6427C53.7379 64.8702 53.2503 66.0475 52.3822 66.9156C51.5142 67.7836 50.3369 68.2712 49.1093 68.2712H10.4145C9.18697 68.2712 8.00968 67.7836 7.14166 66.9156C6.27363 66.0475 5.78598 64.8702 5.78598 63.6427V18.3175H17.1607C17.4676 18.3175 17.7619 18.1955 17.9789 17.9785C18.1959 17.7615 18.3178 17.4672 18.3178 17.1603V5.78561H49.1325C50.3601 5.78561 51.5373 6.27327 52.4054 7.14129C53.2734 8.00931 53.761 9.18661 53.761 10.4142V16.1999L45.8578 8.2619C45.4172 7.82105 44.8941 7.47134 44.3183 7.23274C43.7425 6.99414 43.1253 6.87133 42.5021 6.87133C41.8788 6.87133 41.2616 6.99414 40.6859 7.23274C40.1101 7.47134 39.5869 7.82105 39.1464 8.2619L37.9892 9.41904C37.7737 9.63584 37.6527 9.92912 37.6527 10.2348C37.6527 10.5405 37.7737 10.8338 37.9892 11.0506L39.5282 12.6012L24.0688 28.0606L22.5182 26.5216C22.3014 26.3061 22.0082 26.1851 21.7025 26.1851C21.3968 26.1851 21.1035 26.3061 20.8867 26.5216L19.6717 27.7713C19.2281 28.2103 18.8759 28.7329 18.6355 29.3089C18.3952 29.8849 18.2714 30.5029 18.2714 31.127C18.2714 31.7511 18.3952 32.3691 18.6355 32.9451C18.8759 33.5211 19.2281 34.0437 19.6717 34.4827L30.0859 44.897C30.5255 45.3375 31.0477 45.6869 31.6225 45.9254C32.1973 46.1638 32.8136 46.2866 33.4359 46.2866C34.0582 46.2866 34.6744 46.1638 35.2492 45.9254C35.824 45.6869 36.3462 45.3375 36.7858 44.897L38.0124 43.682C38.1196 43.5739 38.2045 43.4456 38.262 43.3046C38.3196 43.1637 38.3488 43.0127 38.3479 42.8604C38.3488 42.7081 38.3196 42.5572 38.262 42.4162C38.2045 42.2752 38.1196 42.147 38.0124 42.0388L37.0288 40.9743L41.6574 36.3457L53.7379 49.8611V63.6427ZM66.8483 55.4154C66.5056 55.7535 66.0979 56.0186 65.6498 56.1947C65.2018 56.3709 64.7227 56.4545 64.2415 56.4404C63.7603 56.4264 63.2869 56.315 62.85 56.1129C62.413 55.9109 62.0215 55.6225 61.699 55.265L43.2774 34.7141L46.0892 31.9023L66.6979 50.2893C67.0554 50.6117 67.3438 51.0032 67.5459 51.4402C67.7479 51.8772 67.8593 52.3505 67.8734 52.8318C67.8874 53.313 67.8038 53.792 67.6277 54.2401C67.4515 54.6881 67.1864 55.0958 66.8483 55.4385V55.4154Z" fill="#FF9819"/>
<path d="M41.518 53.2284H18.6876C18.3807 53.2284 18.0863 53.3503 17.8693 53.5673C17.6523 53.7843 17.5304 54.0786 17.5304 54.3855V56.2601H16.1997C15.8928 56.2601 15.5985 56.382 15.3815 56.599C15.1645 56.816 15.0426 57.1104 15.0426 57.4172V62.3235H13.33C13.0231 62.3235 12.7288 62.4454 12.5118 62.6624C12.2948 62.8794 12.1729 63.1738 12.1729 63.4807C12.1729 63.7876 12.2948 64.0819 12.5118 64.2989C12.7288 64.5159 13.0231 64.6378 13.33 64.6378H46.8871C47.194 64.6378 47.4883 64.5159 47.7053 64.2989C47.9223 64.0819 48.0442 63.7876 48.0442 63.4807C48.0442 63.1738 47.9223 62.8794 47.7053 62.6624C47.4883 62.4454 47.194 62.3235 46.8871 62.3235H45.1861V57.3825C45.1861 57.0756 45.0642 56.7813 44.8472 56.5643C44.6302 56.3473 44.3358 56.2254 44.0289 56.2254H42.6751V54.3855C42.6751 54.0786 42.5532 53.7843 42.3362 53.5673C42.1192 53.3503 41.8248 53.2284 41.518 53.2284ZM19.8447 55.5427H40.3608V56.2601H19.8447V55.5427ZM42.8718 62.3235H17.3568V58.5397H42.8718V62.3235Z" fill="#FF9819"/>
</svg>
