<svg width="75" height="75" viewBox="0 0 75 75" fill="none" xmlns="http://www.w3.org/2000/svg">
<g clip-path="url(#clip0_190_238)">
<path d="M67.4605 12.788C57.2712 9.99608 47.0219 5.64885 37.8208 0.216361C37.332 -0.0722015 36.7256 -0.0722015 36.2369 0.216361C26.7704 5.80492 17.075 9.91696 6.59634 12.788C5.91942 12.9733 5.4502 13.5886 5.4502 14.2905V30.2079C5.4502 46.5992 13.012 57.4491 19.3557 63.6646C26.1852 70.3565 34.1405 74.0571 37.0289 74.0571C39.9169 74.0571 47.8723 70.3565 54.7017 63.6646C61.0453 57.4493 68.6067 46.5993 68.6067 30.2079V14.2904C68.6067 13.5886 68.1375 12.9733 67.4605 12.788ZM65.4911 30.2077C65.4911 45.5171 58.4381 55.6414 52.5211 61.439C45.8052 68.0195 38.6247 70.9413 37.0289 70.9413C35.433 70.9413 28.2521 68.0195 21.536 61.439C15.6192 55.6413 8.56594 45.5171 8.56594 30.2077V15.473C18.5865 12.6279 27.9186 8.65727 37.0292 3.36292C45.9122 8.51682 55.7099 12.6848 65.4911 15.4724V30.2077Z" fill="#FF9819"/>
<path d="M23.2201 15.2986C22.9048 14.4981 22.0003 14.1048 21.1996 14.4202C18.4167 15.5168 15.5603 16.5261 12.7098 17.4203C12.0602 17.6242 11.6182 18.2259 11.6182 18.9066V24.9224C11.6182 25.7828 12.3158 26.4803 13.176 26.4803C14.0362 26.4803 14.7338 25.7828 14.7338 24.9224V20.0451C17.2909 19.2177 19.8453 18.3026 22.3417 17.3189C23.1423 17.0037 23.5356 16.0992 23.2201 15.2986Z" fill="#FF9819"/>
<path d="M26.1805 15.5941C26.3895 15.5941 26.6017 15.552 26.8052 15.4632L26.8339 15.4508C27.622 15.1054 27.977 14.1879 27.6316 13.4C27.2859 12.6119 26.3632 12.2553 25.5759 12.6005L25.5507 12.6113C24.7621 12.9557 24.406 13.8724 24.7504 14.6607C25.006 15.246 25.5795 15.5941 26.1805 15.5941Z" fill="#FF9819"/>
<path d="M55.5888 50.2319C54.8689 49.7613 53.9036 49.9637 53.4325 50.6839C52.1488 52.6487 50.6428 54.5302 48.9556 56.2756C47.5682 57.7107 46.0648 59.0484 44.4872 60.2511C43.8032 60.7727 43.6716 61.7502 44.193 62.4345C44.4998 62.8365 44.9637 63.0479 45.4329 63.0479C45.7624 63.0479 46.0943 62.9439 46.3764 62.7287C48.0781 61.4311 49.6995 59.9886 51.1954 58.4412C53.0195 56.5545 54.6496 54.5179 56.0408 52.388C56.5116 51.6677 56.309 50.7024 55.5888 50.2319Z" fill="#FF9819"/>
<path d="M40.871 62.6944L40.7816 62.747C40.0371 63.1782 39.7827 64.1311 40.2137 64.8756C40.5026 65.3746 41.0254 65.6532 41.5634 65.6532C41.8281 65.6532 42.0968 65.5856 42.3423 65.4431L42.4454 65.3825C43.1879 64.9477 43.4372 63.9935 43.0024 63.2511C42.5673 62.5089 41.613 62.26 40.871 62.6944Z" fill="#FF9819"/>
<path d="M26.4106 33.849C25.4541 32.8924 24.1819 32.3659 22.8289 32.3659C21.476 32.3659 20.2037 32.8925 19.2467 33.849C17.2719 35.8243 17.2719 39.0382 19.2467 41.0133L28.4454 50.2117C29.4021 51.1681 30.6742 51.6947 32.0274 51.6947C33.3805 51.6947 34.6526 51.1681 35.6094 50.2114L54.8123 31.0084C56.787 29.0327 56.787 25.8192 54.812 23.8447C53.8554 22.888 52.5832 22.3615 51.23 22.3615C49.8768 22.3615 48.6047 22.8882 47.6479 23.8447L32.0272 39.4654L26.4106 33.849ZM49.8511 26.0479C50.2192 25.6798 50.7091 25.4771 51.2301 25.4771C51.7514 25.4771 52.2409 25.6798 52.6093 26.0479C53.3694 26.808 53.3694 28.0452 52.609 28.8056L33.4064 48.0084C33.0383 48.3765 32.5484 48.5791 32.0274 48.5791C31.5063 48.5791 31.0164 48.3765 30.6482 48.0084L21.4498 38.8103C20.6894 38.0499 20.6894 36.8126 21.4495 36.0525C21.8178 35.6844 22.3077 35.4815 22.8288 35.4815C23.35 35.4815 23.8396 35.6841 24.2077 36.0522L30.9256 42.7703C31.2179 43.0623 31.614 43.2265 32.0272 43.2265C32.4405 43.2265 32.8365 43.0625 33.1285 42.7703L49.8511 26.0479Z" fill="#FF9819"/>
</g>
<defs>
<clipPath id="clip0_190_238">
<rect width="74.057" height="74.057" fill="white"/>
</clipPath>
</defs>
</svg>
