<svg width="75" height="75" viewBox="0 0 75 75" fill="none" xmlns="http://www.w3.org/2000/svg">
<g clip-path="url(#clip0_190_251)">
<path d="M27.5884 36.1827L15.959 60.1761" stroke="#FF9819" stroke-width="2.16964" stroke-miterlimit="10" stroke-linecap="round" stroke-linejoin="round"/>
<path d="M13.7475 64.739L10.7638 70.895C10.2982 71.8556 10.998 72.9724 12.0655 72.9724H21.1777C21.7405 72.9724 22.2521 72.6459 22.4893 72.1356L37.0992 40.76" stroke="#FF9819" stroke-width="2.16964" stroke-miterlimit="10" stroke-linecap="round" stroke-linejoin="round"/>
<path d="M34.2871 34.6941L51.6418 72.1354C51.879 72.6457 52.3906 72.9722 52.9534 72.9722H62.0653C63.1328 72.9722 63.8325 71.8555 63.3669 70.8948L46.5421 36.1826" stroke="#FF9819" stroke-width="2.16964" stroke-miterlimit="10" stroke-linejoin="round"/>
<path d="M37.0647 29.3126L41.3607 37.6347C41.7522 38.393 42.7117 38.6493 43.4291 38.1872L54.7149 30.9189C55.2994 30.5424 55.5334 29.8033 55.272 29.159L52.2019 21.5931C51.9804 21.0475 51.4504 20.6905 50.8616 20.6905H23.2677C22.6789 20.6905 22.1487 21.0475 21.9274 21.5931L18.8572 29.159C18.5959 29.8033 18.8298 30.5424 19.4144 30.9189L30.7002 38.1873C31.4176 38.6495 32.3771 38.3932 32.7685 37.6348L37.0647 29.3126Z" stroke="#FF9819" stroke-width="2.16964" stroke-miterlimit="10" stroke-linecap="round" stroke-linejoin="round"/>
<path d="M22.5879 20.8616L37.0656 29.3126L51.5433 20.8616" stroke="#FF9819" stroke-width="2.16964" stroke-miterlimit="10" stroke-linejoin="round"/>
<path d="M53.5201 50.579C58.5807 46.0517 61.7715 39.4754 61.7715 32.1669C61.7715 18.5439 50.6883 7.46063 37.0652 7.46063C32.3743 7.46063 27.9849 8.77486 24.2451 11.0543" stroke="#FF9819" stroke-width="2.16964" stroke-miterlimit="10" stroke-linecap="round" stroke-linejoin="round"/>
<path d="M20.2136 14.1183C15.384 18.6306 12.3594 25.0518 12.3594 32.1671C12.3594 39.4756 15.5503 46.0519 20.6108 50.5792" stroke="#FF9819" stroke-width="2.16964" stroke-miterlimit="10" stroke-linecap="round" stroke-linejoin="round"/>
<path d="M30.0674 55.862C32.2874 56.5188 34.6359 56.8732 37.0661 56.8732C39.5073 56.8732 41.8665 56.5155 44.0954 55.8529" stroke="#FF9819" stroke-width="2.16964" stroke-miterlimit="10" stroke-linejoin="round"/>
<path d="M56.3936 56.5079C63.0389 51.224 67.4693 43.2766 68.0736 34.2803" stroke="#FF9819" stroke-width="2.16964" stroke-miterlimit="10" stroke-linecap="round" stroke-linejoin="round"/>
<path d="M68.0075 29.2177C66.5218 13.435 53.2368 1.08472 37.0655 1.08472C19.8993 1.08472 5.9834 15.0006 5.9834 32.1668C5.9834 42.027 10.5758 50.8136 17.7371 56.5079" stroke="#FF9819" stroke-width="2.16964" stroke-miterlimit="10" stroke-linecap="round" stroke-linejoin="round"/>
<path d="M27.3486 61.698C30.4057 62.7033 33.6714 63.2491 37.0649 63.2491C40.4656 63.2491 43.7379 62.7011 46.8006 61.6918" stroke="#FF9819" stroke-width="2.16964" stroke-miterlimit="10" stroke-linejoin="round"/>
</g>
<defs>
<clipPath id="clip0_190_251">
<rect width="74.057" height="74.057" fill="white"/>
</clipPath>
</defs>
</svg>
