<svg width="75" height="75" viewBox="0 0 75 75" fill="none" xmlns="http://www.w3.org/2000/svg">
<g clip-path="url(#clip0_190_307)">
<path d="M37.0285 18.282C36.2301 18.282 35.582 18.93 35.582 19.7284C35.582 20.5268 36.2301 21.1748 37.0285 21.1748C37.8268 21.1748 38.4749 20.5268 38.4749 19.7284C38.4749 18.93 37.8268 18.282 37.0285 18.282Z" fill="#FF9819"/>
<path d="M13.0177 44.3177C13.8161 44.3177 14.4641 43.6696 14.4641 42.8712C14.4641 42.0729 13.8161 41.4248 13.0177 41.4248C12.2194 41.4248 11.5713 42.0729 11.5713 42.8712C11.5713 43.6696 12.2194 44.3177 13.0177 44.3177Z" fill="#FF9819"/>
<path d="M48.5999 3.81775C35.5781 3.81775 24.8904 12.7958 24.0638 24.1044C11.6624 24.7265 0 33.6689 0 45.7641C0 50.8187 2.00014 55.7162 5.64106 59.5967C6.36145 62.5664 5.48681 65.7141 3.31661 67.8843C2.90302 68.2979 2.77929 68.9199 3.00303 69.4606C3.22677 70.0008 3.75393 70.3534 4.33928 70.3534C8.46442 70.3534 12.4398 68.7357 15.3937 65.8853C18.2713 66.8661 22.0258 67.4605 25.4571 67.4605C38.4772 67.4605 49.1638 58.4848 49.9927 47.1783C53.0211 47.0439 56.1711 46.4845 58.6633 45.6353C61.6172 48.4858 65.5926 50.1034 69.7178 50.1034C70.3031 50.1034 70.8303 49.7508 71.054 49.2107C71.2777 48.67 71.154 48.0479 70.7404 47.6343C68.5702 45.4641 67.6956 42.3164 68.416 39.3467C72.0569 35.4662 74.057 30.5687 74.057 25.5141C74.057 12.9466 61.4963 3.81775 48.5999 3.81775ZM25.4571 64.5677C22.0433 64.5677 18.1532 63.8976 15.5474 62.8608C14.9892 62.6381 14.3513 62.7845 13.945 63.228C12.1986 65.1372 9.9278 66.4683 7.45362 67.0803C8.81699 64.4682 9.16503 61.3889 8.3356 58.4712C8.27006 58.2412 8.14858 58.0311 7.9819 57.8599C4.70032 54.48 2.89285 50.1842 2.89285 45.7641C2.89285 35.5713 13.2258 26.9606 25.4571 26.9606C37.007 26.9606 47.1535 34.9922 47.1535 45.7641C47.1535 56.1326 37.4206 64.5677 25.4571 64.5677ZM66.0751 37.6099C65.9085 37.7816 65.787 37.9918 65.7214 38.2212C64.892 41.1389 65.24 44.2182 66.6034 46.8303C64.1292 46.2189 61.8585 44.8872 60.112 42.978C59.7058 42.5351 59.0679 42.3882 58.5096 42.6108C56.2513 43.5092 53.0296 44.1312 49.9882 44.2815C49.5655 38.8117 46.8371 33.6706 42.1724 29.8534H61.0392C61.8381 29.8534 62.4856 29.2059 62.4856 28.407C62.4856 27.6081 61.8381 26.9606 61.0392 26.9606H37.7286C34.4453 25.2893 30.7586 24.3146 26.964 24.1101C27.7951 14.3953 37.1816 6.7106 48.5999 6.7106C60.8313 6.7106 71.1642 15.3214 71.1642 25.5141C71.1642 29.9342 69.3567 34.23 66.0751 37.6099Z" fill="#FF9819"/>
<path d="M37.0288 41.4248H18.8038C18.0049 41.4248 17.3574 42.0723 17.3574 42.8712C17.3574 43.6702 18.0049 44.3177 18.8038 44.3177H37.0288C37.8277 44.3177 38.4752 43.6702 38.4752 42.8712C38.4752 42.0723 37.8277 41.4248 37.0288 41.4248Z" fill="#FF9819"/>
<path d="M37.0284 50.1034H13.0177C12.2188 50.1034 11.5713 50.7509 11.5713 51.5498C11.5713 52.3487 12.2188 52.9962 13.0177 52.9962H37.0284C37.8273 52.9962 38.4748 52.3487 38.4748 51.5498C38.4748 50.7509 37.8273 50.1034 37.0284 50.1034Z" fill="#FF9819"/>
<path d="M61.0386 18.282H42.8136C42.0147 18.282 41.3672 18.9295 41.3672 19.7284C41.3672 20.5273 42.0147 21.1748 42.8136 21.1748H61.0386C61.8375 21.1748 62.485 20.5273 62.485 19.7284C62.485 18.9295 61.8375 18.282 61.0386 18.282Z" fill="#FF9819"/>
</g>
<defs>
<clipPath id="clip0_190_307">
<rect width="74.057" height="74.057" fill="white" transform="translate(0 0.0570068)"/>
</clipPath>
</defs>
</svg>
