<svg width="75" height="75" viewBox="0 0 75 75" fill="none" xmlns="http://www.w3.org/2000/svg">
<g clip-path="url(#clip0_190_221)">
<path d="M51.8894 25.9503C52.5659 26.0322 53.1811 25.5498 53.2628 24.8731C54.4434 15.1014 46.7994 6.53723 37.0273 6.53723C28.0094 6.53723 20.6729 13.8739 20.6729 22.8917C20.6729 31.9095 28.0094 39.2462 37.0273 39.2462C42.3817 39.2462 47.4052 36.618 50.465 32.2159C50.8541 31.6561 50.7157 30.887 50.1559 30.4979C49.5965 30.109 48.8271 30.2472 48.438 30.8069C45.8393 34.5455 41.5737 36.7776 37.0273 36.7776C29.3707 36.7776 23.1415 30.5484 23.1415 22.8917C23.1415 15.235 29.3707 9.00583 37.0273 9.00583C45.3039 9.00583 51.8184 16.2575 50.8121 24.5768C50.7304 25.2535 51.2127 25.8685 51.8894 25.9503Z" fill="#FF9819"/>
<path d="M44.4972 56.8307H44.2338V44.5647C53.2166 41.5705 59.8615 33.095 59.8615 22.8917C59.8615 10.3007 49.6179 0.0571289 37.0269 0.0571289C24.436 0.0571289 14.1924 10.3007 14.1924 22.8917C14.1924 35.2651 24.027 45.3568 36.3491 45.7163C37.0322 45.7375 37.5992 45.1999 37.6189 44.5186C37.6388 43.8371 37.1025 43.2687 36.4212 43.2488C25.3409 42.9254 16.6611 33.9835 16.6611 22.8917C16.6611 11.6619 25.7973 2.52573 37.0271 2.52573C48.2569 2.52573 57.393 11.6619 57.393 22.8917C57.393 31.9278 51.3341 39.9784 42.659 42.4692C42.13 42.6212 41.7654 43.1052 41.7654 43.6555V58.065C41.7654 58.7467 42.3181 59.2993 42.9997 59.2993H44.4974C45.0628 59.2993 45.3967 59.9311 45.0778 60.3983L37.6077 71.3399C37.3292 71.7479 36.7264 71.7492 36.447 71.3399L28.9768 60.3983C28.6581 59.9313 28.9915 59.2993 29.5572 59.2993H31.0549C31.7366 59.2993 32.2892 58.7467 32.2892 58.065V50.3797C32.2892 49.698 31.7366 49.1454 31.0549 49.1454C30.3733 49.1454 29.8206 49.698 29.8206 50.3797V56.8307H29.5572C27.012 56.8307 25.502 59.6867 26.9381 61.7903L34.4082 72.7319C35.6644 74.5719 38.3862 74.5778 39.6464 72.7319L47.1165 61.7903C48.5516 59.6881 47.0443 56.8307 44.4972 56.8307Z" fill="#FF9819"/>
<path d="M20.1655 51.4162V43.8816C20.1655 43.2 19.6128 42.6473 18.9312 42.6473C18.2495 42.6473 17.6969 43.2 17.6969 43.8816V52.5353C17.6969 53.2169 18.2495 53.7696 18.9312 53.7696H19.3271C19.8236 53.7696 20.1169 54.3244 19.8367 54.7346L14.9294 61.9223C14.684 62.2818 14.1558 62.2822 13.91 61.9223L9.00278 54.7346C8.7229 54.3247 9.01559 53.7696 9.51239 53.7696H9.90829C10.5899 53.7696 11.1426 53.2169 11.1426 52.5353V32.149C11.1426 31.4673 10.5899 30.9147 9.90829 30.9147C9.22665 30.9147 8.67399 31.4673 8.67399 32.149V51.4162C6.66054 51.9823 5.76753 54.3742 6.96403 56.1266L11.8713 63.3143C13.0934 65.1045 15.7419 65.1103 16.9682 63.3143L21.8754 56.1266C23.0715 54.3748 22.1799 51.9825 20.1655 51.4162Z" fill="#FF9819"/>
<path d="M65.3802 51.4162V32.149C65.3802 31.4673 64.8276 30.9147 64.1459 30.9147C63.4643 30.9147 62.9116 31.4673 62.9116 32.149V52.5353C62.9116 53.2169 63.4643 53.7696 64.1459 53.7696H64.5418C65.0382 53.7696 65.3316 54.3244 65.0514 54.7346L60.1442 61.9223C59.8987 62.2818 59.3706 62.2822 59.1248 61.9223L54.2175 54.7346C53.9375 54.3245 54.2303 53.7696 54.7271 53.7696H55.123C55.8047 53.7696 56.3573 53.2169 56.3573 52.5353V43.8816C56.3573 43.2 55.8047 42.6473 55.123 42.6473C54.4414 42.6473 53.8887 43.2 53.8887 43.8816V51.4162C51.8702 51.9837 50.9848 54.3778 52.1788 56.1266L57.086 63.3143C58.3083 65.1048 60.9568 65.1102 62.1829 63.3143L67.0902 56.1266C68.2887 54.3711 67.3907 51.9814 65.3802 51.4162Z" fill="#FF9819"/>
<path d="M37.028 34.6175C37.7096 34.6175 38.2622 34.0648 38.2622 33.3832V31.7308C40.9836 31.2639 43.0331 29.2932 43.0331 26.9395C43.0331 23.237 39.7005 22.5612 37.2672 22.0676C34.3787 21.4818 33.4793 21.0672 33.4793 19.6151C33.4793 18.299 35.1017 17.187 37.0219 17.187C38.3329 17.187 39.5367 17.6951 40.1637 18.513C40.5784 19.0541 41.3529 19.1565 41.8942 18.7416C42.4351 18.3269 42.5376 17.5522 42.1228 17.0112C41.2446 15.8656 39.8523 15.09 38.2622 14.8227V13.1716C38.2622 12.4899 37.7096 11.9373 37.028 11.9373C36.3463 11.9373 35.7937 12.4899 35.7937 13.1716V14.8217C33.0662 15.2848 31.0107 17.258 31.0107 19.6151C31.0107 23.3176 34.3434 23.9934 36.7766 24.487C39.6652 25.0728 40.5645 25.4874 40.5645 26.9395C40.5645 28.2556 38.9422 29.3676 37.0219 29.3676C35.711 29.3676 34.5072 28.8595 33.8802 28.0416C33.4655 27.5005 32.6909 27.3981 32.1497 27.813C31.6088 28.2277 31.5063 29.0024 31.921 29.5435C32.8014 30.692 34.1985 31.4687 35.7937 31.7342V33.3832C35.7937 34.0648 36.3462 34.6175 37.028 34.6175Z" fill="#FF9819"/>
</g>
<defs>
<clipPath id="clip0_190_221">
<rect width="74.057" height="74.057" fill="white" transform="translate(0 0.0570068)"/>
</clipPath>
</defs>
</svg>
