<svg width="75" height="75" viewBox="0 0 75 75" fill="none" xmlns="http://www.w3.org/2000/svg">
<g clip-path="url(#clip0_190_318)">
<mask id="mask0_190_318" style="mask-type:luminance" maskUnits="userSpaceOnUse" x="0" y="0" width="75" height="75">
<path d="M0 -1.52588e-05H74.057V74.057H0V-1.52588e-05Z" fill="white"/>
</mask>
<g mask="url(#mask0_190_318)">
<path d="M56.8184 15.332C56.8184 24.0106 49.6847 28.9414 37.0284 39.9213C24.3722 28.9414 17.2383 24.0106 17.2383 15.332C17.2383 11.0578 19.9995 3.76061 27.923 3.76061C32.7874 3.76061 35.4836 7.31159 37.0284 10.1379C38.5731 7.31159 41.2694 3.76061 46.1337 3.76061C54.0572 3.76061 56.8184 11.0578 56.8184 15.332Z" stroke="#FF9819" stroke-width="2.89285" stroke-miterlimit="10" stroke-linecap="round" stroke-linejoin="round"/>
<path d="M58.1465 50.3977L65.5536 42.9891C66.339 42.2038 66.825 41.119 66.825 39.9212C66.825 38.0324 65.6187 36.4252 63.9322 35.8293" stroke="#FF9819" stroke-width="2.89285" stroke-miterlimit="10" stroke-linecap="round" stroke-linejoin="round"/>
<path d="M10.1248 35.8294C10.5776 35.6688 11.0636 35.582 11.5713 35.582C12.7689 35.582 13.8537 36.068 14.6391 36.8534L17.8878 40.1007C19.9085 42.1213 24.7555 44.0075 27.5977 44.2924L27.7047 44.304C31.3555 44.6699 34.1355 47.7436 34.1355 51.4132V70.2963H18.8034V61.6177L11.0404 57.7369C5.16071 54.7964 1.44629 48.7865 1.44629 42.2125V22.5642C1.44629 20.1675 3.38884 18.2249 5.78557 18.2249C8.1823 18.2249 10.1248 20.1675 10.1248 22.5642V35.8294Z" stroke="#FF9819" stroke-width="2.89285" stroke-miterlimit="10" stroke-linecap="round" stroke-linejoin="round"/>
<path d="M15.909 50.3978L8.50188 42.9892C7.71647 42.204 7.23047 41.1191 7.23047 39.9214C7.23047 38.0325 8.43679 36.4253 10.1233 35.8294" stroke="#FF9819" stroke-width="2.89285" stroke-miterlimit="10" stroke-linecap="round" stroke-linejoin="round"/>
<path d="M67.8372 55.5428C67.8372 56.3415 67.1895 56.9893 66.3908 56.9893C65.592 56.9893 64.9443 56.3415 64.9443 55.5428C64.9443 54.7441 65.592 54.0964 66.3908 54.0964C67.1895 54.0964 67.8372 54.7441 67.8372 55.5428Z" fill="#FF9819"/>
<path d="M70.5031 50.5012C71.8612 48.0032 72.6101 45.1648 72.6101 42.2124V22.5642C72.6101 20.1675 70.6677 18.2249 68.2709 18.2249C65.8741 18.2249 63.9316 20.1675 63.9316 22.5642V35.8294C63.4788 35.6688 62.9928 35.582 62.4851 35.582C61.2875 35.582 60.2027 36.0682 59.4173 36.8536L56.1686 40.1008C54.1481 42.1213 49.301 44.0075 46.4589 44.2924L46.3517 44.304C42.7009 44.6701 39.9209 47.7437 39.9209 51.4133V70.2963H55.253V61.6177L60.7869 58.8513" stroke="#FF9819" stroke-width="2.89285" stroke-miterlimit="10" stroke-linecap="round" stroke-linejoin="round"/>
</g>
</g>
<defs>
<clipPath id="clip0_190_318">
<rect width="74.057" height="74.057" fill="white"/>
</clipPath>
</defs>
</svg>
