<svg width="41" height="40" viewBox="0 0 41 40" fill="none" xmlns="http://www.w3.org/2000/svg">
<path fill-rule="evenodd" clip-rule="evenodd" d="M20.5 5C16.4262 5 15.9154 5.01727 14.3155 5.09027C12.7189 5.16309 11.6285 5.41668 10.6744 5.78751C9.68805 6.17079 8.85153 6.68369 8.01758 7.51758C7.18369 8.35153 6.67079 9.18805 6.28751 10.1744C5.91668 11.1285 5.66309 12.2189 5.59027 13.8155C5.51727 15.4154 5.5 15.9262 5.5 20C5.5 24.0738 5.51727 24.5846 5.59027 26.1845C5.66309 27.7811 5.91668 28.8715 6.28751 29.8256C6.67079 30.812 7.18369 31.6485 8.01758 32.4824C8.85153 33.3163 9.68805 33.8292 10.6744 34.2125C11.6285 34.5833 12.7189 34.8369 14.3155 34.9097C15.9154 34.9827 16.4262 35 20.5 35C24.5738 35 25.0846 34.9827 26.6845 34.9097C28.2811 34.8369 29.3715 34.5833 30.3256 34.2125C31.312 33.8292 32.1485 33.3163 32.9824 32.4824C33.8163 31.6485 34.3292 30.812 34.7125 29.8256C35.0833 28.8715 35.3369 27.7811 35.4097 26.1845C35.4827 24.5846 35.5 24.0738 35.5 20C35.5 15.9262 35.4827 15.4154 35.4097 13.8155C35.3369 12.2189 35.0833 11.1285 34.7125 10.1744C34.3292 9.18805 33.8163 8.35153 32.9824 7.51758C32.1485 6.68369 31.312 6.17079 30.3256 5.78751C29.3715 5.41668 28.2811 5.16309 26.6845 5.09027C25.0846 5.01727 24.5738 5 20.5 5ZM20.5 7.70264C24.5051 7.70264 24.9795 7.71794 26.5612 7.7901C28.0237 7.85679 28.818 8.10115 29.3465 8.30658C30.0467 8.57869 30.5464 8.90373 31.0712 9.42866C31.5961 9.95353 31.9212 10.4532 32.1933 11.1534C32.3987 11.6819 32.6431 12.4762 32.7098 13.9387C32.7819 15.5203 32.7972 15.9948 32.7972 20C32.7972 24.0051 32.7819 24.4795 32.7098 26.0612C32.6431 27.5237 32.3987 28.318 32.1933 28.8465C31.9212 29.5467 31.5961 30.0464 31.0712 30.5712C30.5464 31.0961 30.0467 31.4212 29.3465 31.6933C28.818 31.8987 28.0237 32.1431 26.5612 32.2098C24.9798 32.2819 24.5054 32.2972 20.5 32.2972C16.4945 32.2972 16.0202 32.2819 14.4387 32.2098C12.9762 32.1431 12.1819 31.8987 11.6534 31.6933C10.9532 31.4212 10.4535 31.0961 9.92866 30.5712C9.40379 30.0464 9.07869 29.5467 8.80658 28.8465C8.60115 28.318 8.35679 27.5237 8.2901 26.0612C8.21794 24.4795 8.20264 24.0051 8.20264 20C8.20264 15.9948 8.21794 15.5203 8.2901 13.9387C8.35679 12.4762 8.60115 11.6819 8.80658 11.1534C9.07869 10.4532 9.40373 9.95353 9.92866 9.42866C10.4535 8.90373 10.9532 8.57869 11.6534 8.30658C12.1819 8.10115 12.9762 7.85679 14.4387 7.7901C16.0203 7.71794 16.4948 7.70264 20.5 7.70264ZM12.7974 20.0001C12.7974 15.746 16.246 12.2974 20.5001 12.2974C24.7542 12.2974 28.2028 15.746 28.2028 20.0001C28.2028 24.2542 24.7542 27.7028 20.5001 27.7028C16.246 27.7028 12.7974 24.2542 12.7974 20.0001ZM20.5 25C17.7386 25 15.5 22.7614 15.5 20C15.5 17.2386 17.7386 15 20.5 15C23.2614 15 25.5 17.2386 25.5 20C25.5 22.7614 23.2614 25 20.5 25ZM28.5072 13.7929C29.5014 13.7929 30.3073 12.987 30.3073 11.9929C30.3073 10.9988 29.5014 10.1929 28.5072 10.1929C27.5132 10.1929 26.7073 10.9988 26.7073 11.9929C26.7073 12.987 27.5132 13.7929 28.5072 13.7929Z" fill="#DADFE2"/>
</svg>
