<svg width="41" height="40" viewBox="0 0 41 40" fill="none" xmlns="http://www.w3.org/2000/svg">
<path fill-rule="evenodd" clip-rule="evenodd" d="M34.0075 11.6163C34.9066 12.5511 35.2 14.6737 35.2 14.6737C35.2 14.6737 35.5 17.167 35.5 19.6594V21.9967C35.5 24.49 35.2 26.9823 35.2 26.9823C35.2 26.9823 34.9066 29.105 34.0075 30.0398C32.9796 31.1455 31.8399 31.2598 31.1956 31.3244C31.1248 31.3315 31.0599 31.338 31.0019 31.3451C26.8037 31.657 20.5 31.6667 20.5 31.6667C20.5 31.6667 12.7 31.5935 10.3 31.3567C10.1863 31.3349 10.0484 31.3179 9.89235 31.2987C9.13212 31.205 7.93891 31.0581 6.99156 30.0398C6.0925 29.105 5.8 26.9823 5.8 26.9823C5.8 26.9823 5.5 24.49 5.5 21.9967V19.6594C5.5 17.167 5.8 14.6737 5.8 14.6737C5.8 14.6737 6.0925 12.5511 6.99156 11.6163C8.02174 10.509 9.16257 10.396 9.80685 10.3321C9.8767 10.3252 9.94072 10.3189 9.99812 10.3119C14.1962 10 20.4934 10 20.4934 10H20.5066C20.5066 10 26.8037 10 31.0019 10.3119C31.0593 10.3189 31.1233 10.3252 31.1932 10.3322C31.837 10.396 32.9783 10.5092 34.0075 11.6163ZM17.4019 16.1737L17.4028 24.829L25.5075 20.5163L17.4019 16.1737Z" fill="#DADFE2"/>
</svg>
